# xmcd
# 
# Track frame offsets:
#     150
#     35350
#     62732
#     94138
#     99475
#     125996
#     142432
#     189892
# 
# Disc length: 2897
# 
# Revision: 0
# Processed by: cddbd v1.5.2PL0 Copyright (c) Steve Scherf et al.
# Submitted via: fre:ac v1.0.17
# 
DISCID=750b4f08
DTITLE=The Old Man and The Sea - The Old Man and The Sea
DYEAR=1972
DGENRE=Hard Rock
TTITLE0=Living Dead
TTITLE1=Princess
TTITLE2=Jingoism
TTITLE3=Prelude
TTITLE4=The Monk Song, Part 1.
TTITLE5=The Monk Song, Part 2.
TTITLE6=Going Blind
TTITLE7=Circulation
EXTD=
EXTT0=
EXTT1=
EXTT2=
EXTT3=
EXTT4=
EXTT5=
EXTT6=
EXTT7=
PLAYORDER=
